<svg aria-hidden="true" style="position:absolute;width:0;height:0" xmlns="http://www.w3.org/2000/svg" overflow="hidden"><defs><symbol id="icon-search" viewBox="0 0 32 32"><path d="M20 .005c-6.627 0-12 5.373-12 12 0 2.026.507 3.933 1.395 5.608l-8.344 8.342.007.006A3.515 3.515 0 000 28.477a3.529 3.529 0 003.529 3.529c.985 0 1.874-.406 2.515-1.059l-.002-.002 8.341-8.34c1.676.891 3.586 1.4 5.617 1.4 6.627 0 12-5.373 12-12s-5.373-12-12-12zM4.795 29.697a1.75 1.75 0 01-1.266.543 1.764 1.764 0 01-1.765-1.764c0-.498.21-.943.543-1.266l-.009-.008 8.066-8.066a12.101 12.101 0 002.494 2.498l-8.063 8.063zM20 22.006c-5.522 0-10-4.479-10-10s4.478-10 10-10c5.521 0 10 4.478 10 10s-4.479 10-10 10zm0-17.001a.5.5 0 010 1 6 6 0 00-6 6 .5.5 0 01-1 0 7 7 0 017-7z"/></symbol><symbol id="icon-settings" viewBox="0 0 32 32"><path d="M30.391 12.68l-3.064-.614a12.098 12.098 0 00-.537-1.289l1.736-2.604a1.999 1.999 0 00-.25-2.523l-1.924-1.924a1.996 1.996 0 00-2.523-.25l-2.604 1.735a12.09 12.09 0 00-1.291-.536L19.32 1.61A1.998 1.998 0 0017.359.002h-2.72a2 2 0 00-1.961 1.608l-.614 3.065c-.443.154-.873.335-1.289.536L8.172 3.476a1.996 1.996 0 00-2.524.25L3.725 5.65a2 2 0 00-.25 2.523l1.735 2.604c-.202.417-.382.847-.536 1.29l-3.066.613A2 2 0 000 14.641v2.72a2 2 0 001.608 1.961l3.065.615c.154.443.335.873.536 1.289L3.475 23.83a1.999 1.999 0 00.25 2.523l1.924 1.924a1.996 1.996 0 002.523.25l2.604-1.736c.417.203.847.383 1.29.537l.613 3.064a2 2 0 001.961 1.609h2.72a2 2 0 001.961-1.609l.615-3.064c.443-.154.873-.336 1.289-.537l2.604 1.736a1.998 1.998 0 002.523-.25l1.924-1.924a2 2 0 00.25-2.523l-1.736-2.604c.203-.418.383-.848.537-1.291l3.064-.613A2 2 0 0032 17.361v-2.72c0-.953-.674-1.774-1.609-1.961zm-3.457 5.295a1.997 1.997 0 00-1.496 1.305c-.129.369-.279.727-.447 1.074a1.996 1.996 0 00.135 1.982l1.736 2.604-1.924 1.924-2.604-1.736a1.997 1.997 0 00-1.98-.137c-.348.168-.705.32-1.076.449a1.998 1.998 0 00-1.303 1.496l-.615 3.066h-2.72l-.613-3.066a1.997 1.997 0 00-1.304-1.496 10.17 10.17 0 01-1.075-.447 1.994 1.994 0 00-1.981.135l-2.604 1.736-1.924-1.924 1.735-2.604c.393-.59.444-1.344.137-1.98a10.106 10.106 0 01-.448-1.076 2 2 0 00-1.496-1.303l-3.065-.615L2 14.641l3.066-.613a1.999 1.999 0 001.496-1.304c.129-.369.278-.728.447-1.075a1.995 1.995 0 00-.136-1.981L5.139 7.064 7.062 5.14l2.604 1.735a1.997 1.997 0 001.98.137 10.09 10.09 0 011.075-.448 1.999 1.999 0 001.304-1.496l.614-3.065 2.72-.001.613 3.066a1.998 1.998 0 001.305 1.496c.369.129.727.278 1.074.447a1.998 1.998 0 001.982-.136l2.604-1.735 1.924 1.924-1.736 2.604a2.006 2.006 0 00-.137 1.98c.168.347.32.705.449 1.075a1.997 1.997 0 001.496 1.304l3.064.614.003 2.72-3.066.614zM16 9.001A7 7 0 1016.001 23 7 7 0 0016 9zm0 13.126c-3.382 0-6.125-2.744-6.125-6.125S12.618 9.877 16 9.877a6.127 6.127 0 016.125 6.125A6.127 6.127 0 0116 22.127zm0-10.126c-2.21 0-4 1.79-4 4s1.79 4 4 4a4 4 0 000-8zm0 7.001a3.001 3.001 0 010-6 3.001 3.001 0 010 6z"/></symbol><symbol id="icon-bulb" viewBox="0 0 32 32"><path d="M16 0C9.924 0 5 4.924 5 11c0 4.031 3.688 8.303 5.031 12.055C12.034 28.65 11.812 32 16 32c4.25 0 3.965-3.334 5.969-8.922C23.316 19.318 27 15 27 11c0-6.076-4.926-11-11-11zm2.592 27.176l-4.958.619a43.56 43.56 0 01-.598-1.893l-.009-.031 6.188-.773c-.088.295-.182.605-.264.883-.131.449-.248.839-.359 1.195zm-5.856-2.268A60 60 0 0012.121 23h7.766c-.123.359-.246.719-.352 1.059l-6.799.849zM16 30c-1.013 0-1.479-.117-1.997-1.25l4.238-.531C17.627 29.873 17.18 30 16 30zm4.672-9h-9.333c-.498-1.08-1.096-2.16-1.686-3.217C8.348 15.448 7 13.033 7 11c0-4.963 4.037-9 9-9s9 4.037 9 9c0 2.018-1.35 4.446-2.656 6.795-.584 1.053-1.178 2.131-1.672 3.205zM16 5a.5.5 0 010 1c-2.757 0-5 2.243-5 5a.5.5 0 01-1 0c0-3.309 2.691-6 6-6z"/></symbol><symbol id="icon-pen" viewBox="0 0 32 32"><path d="M29.395 2.58C27.75.937 25.584 0 23.449 0c-1.801 0-3.459.668-4.67 1.877l-4.867 4.904c-.015.014-.032.023-.047.038-.008.008-.013.019-.021.026l.002.002L3.517 17.256a4.023 4.023 0 00-1.013 1.705L.155 27.469C.153 27.492 0 28.16 0 28.5 0 30.432 1.569 32 3.504 32c.385 0 1.13-.184 1.157-.188l8.478-2.229a4.021 4.021 0 001.705-1.016l15.263-15.383c2.776-2.778 2.463-7.434-.712-10.604zM16.014 23.795a8.145 8.145 0 00-.719-2.627l9.455-9.454c.578 1.826.281 3.736-.986 5.004-.008.008-.018.013-.025.021l.014.013-7.728 7.79c0-.249.012-.493-.011-.747zm-1.221-3.539c-.373-.613-.797-1.205-1.322-1.729-.611-.611-1.312-1.09-2.044-1.492l9.532-9.532a6.939 6.939 0 012.098 1.438 6.976 6.976 0 011.281 1.771l-9.545 9.544zm-4.307-3.694a7.976 7.976 0 00-2.868-.599l7.703-7.762c1.179-1.15 2.896-1.481 4.587-1.062l-9.422 9.423zM4.167 29.873c-.109.025-.448.111-.678.127A1.505 1.505 0 012 28.5c.012-.168.079-.457.102-.562l1.053-3.814c1.143-.031 2.373.414 3.34 1.383.982.98 1.444 2.234 1.394 3.391l-3.722.975zm4.707-1.236c-.024-1.342-.57-2.738-1.672-3.838-1.042-1.043-2.406-1.645-3.766-1.699l.996-3.607c.072-.24.215-.477.391-.684 2.006-1.436 5.091-1.012 7.234 1.133 2.267 2.266 2.617 5.586.871 7.568a1.97 1.97 0 01-.359.156l-3.695.971zm19.817-16.865l-1.684 1.697c0-.226.027-.443.006-.674-.176-1.935-1.078-3.806-2.543-5.269-1.629-1.63-3.789-2.565-5.928-2.571l1.656-1.67C21.027 2.458 22.184 2 23.449 2c1.609 0 3.262.728 4.533 1.995 1.193 1.191 1.904 2.671 2.006 4.168.094 1.397-.367 2.678-1.297 3.609z"/></symbol><symbol id="icon-display" viewBox="0 0 32 32"><path d="M27 4.996L5 5c-.553 0-1 .443-1 .996v14a1 1 0 001 1h22a1 1 0 001-1v-14a1 1 0 00-1-1zM27 20H5V5.996h22V20zm2-19H3a3 3 0 00-3 3v20a2.997 2.997 0 002.99 2.998H13v1.217l-6.242.811A.999.999 0 007 30.996h18a1 1 0 00.242-1.971L19 28.215v-1.217h10.01A2.997 2.997 0 0032 24V4a3 3 0 00-3-3zm1 23c0 .551-.449 1-1 1H3c-.552 0-1-.449-1-1V4a1 1 0 011-1h26c.551 0 1 .448 1 1v20z"/></symbol><symbol id="icon-bubble" viewBox="0 0 32 32"><path d="M16 7a.5.5 0 010 1c-5.327 0-10 2.804-10 6a.5.5 0 01-1 0c0-3.794 5.037-7 11-7zm0-5C7.163 2 0 7.373 0 14c0 4.127 2.779 7.766 7.008 9.926 0 .027-.008.045-.008.074 0 1.793-1.339 3.723-1.928 4.736h.002A.906.906 0 005.906 30c.094 0 .259-.025.255-.014 3.125-.512 6.069-3.383 6.753-4.215A21.18 21.18 0 0016 26c8.835 0 16-5.373 16-12S24.836 2 16 2zm0 22c-.917 0-1.858-.07-2.796-.207a2 2 0 00-1.836.709c-.428.521-1.646 1.684-3.085 2.539.39-.895.695-1.898.716-2.932a2 2 0 00-1.081-1.965C4.212 20.252 2 17.207 2 14 2 8.486 8.28 4 16 4c7.718 0 14 4.486 14 10s-6.281 10-14 10z"/></symbol><symbol id="icon-phone" viewBox="0 0 32 32"><path d="M24 0H8a3 3 0 00-3 3v26a3 3 0 003 3h16c1.656 0 3-1.344 3-3V3a3 3 0 00-3-3zm1 29c0 .551-.449 1-1 1H8a1 1 0 01-1-1v-2.004h18V29zm0-3.004H7V6h18v19.996zM25 5H7V3a1 1 0 011-1h16c.551 0 1 .448 1 1v2zm-7-1.5a.5.5 0 01-.5.5h-3a.499.499 0 110-1h3a.5.5 0 01.5.5zm-1 24.996c0 .275-.225.5-.5.5h-1a.5.5 0 110-1h1a.5.5 0 01.5.5z"/></symbol><symbol id="icon-news" viewBox="0 0 32 32"><path d="M29 0H7a3 3 0 00-3 3v2H3a3 3 0 00-3 3v20a4 4 0 004 4h24a4 4 0 004-4V3a3 3 0 00-3-3zm1 28c0 1.102-.898 2-2 2H4c-1.103 0-2-.898-2-2V8a1 1 0 011-1h1v20a1 1 0 102 0V3a1 1 0 011-1h22c.551 0 1 .448 1 1v25zM19.498 13.005a.5.5 0 010-1h8a.5.5 0 110 1h-8zm0-3a.5.5 0 010-1h8a.5.5 0 110 1h-8zm0-3a.5.5 0 010-1h8a.5.5 0 110 1h-8zM16.5 27.004a.5.5 0 010 1h-8a.5.5 0 110-1h8zm0-3a.5.5 0 010 1h-8a.5.5 0 110-1h8zm0-3a.5.5 0 010 1h-8a.5.5 0 110-1h8zm11 6a.5.5 0 010 1h-8a.499.499 0 110-1h8zm0-3a.5.5 0 010 1h-8a.499.499 0 110-1h8zm0-3a.5.5 0 010 1h-8a.499.499 0 110-1h8zm0-6a.5.5 0 010 1h-19a.5.5 0 010-1h19zm0 3a.5.5 0 010 1h-19a.5.5 0 110-1h19zM9 13h7a1 1 0 001-1V5.004a1 1 0 00-1-1H9a1 1 0 00-1 1V12a1 1 0 001 1zm1-7h5v5h-5V6z"/></symbol><symbol id="icon-mail" viewBox="0 0 32 32"><path d="M28 5H4a4 4 0 00-4 4v13a4 4 0 004 4h24a4 4 0 004-4V9a4 4 0 00-4-4zM2 10.25l6.999 5.25L2 20.75v-10.5zM30 22c0 1.104-.898 2-2 2H4c-1.103 0-2-.896-2-2l7.832-5.875 4.368 3.277a3 3 0 003.599 0l4.369-3.277L30 22zm0-1.25l-7-5.25 7-5.25v10.5zm-12.801-2.148c-.349.262-.763.4-1.199.4s-.851-.139-1.2-.4L2 9c0-1.103.897-2 2-2h24c1.102 0 2 .897 2 2l-12.801 9.602z"/></symbol><symbol id="icon-banknote" viewBox="0 0 32 32"><path d="M31.415 10.586l-10-10a2.002 2.002 0 00-3.326.822c-.453 1.469-1.236 2.746-2.395 3.904-1.548 1.547-3.564 2.719-5.697 3.958-2.264 1.312-4.603 2.672-6.52 4.588C1.848 15.489.739 17.303.089 19.409a2.002 2.002 0 00.496 2.006l10 10a2.002 2.002 0 003.326-.824c.454-1.469 1.237-2.746 2.397-3.904 1.547-1.547 3.562-2.717 5.697-3.955 2.262-1.314 4.602-2.674 6.518-4.59 1.629-1.629 2.738-3.445 3.389-5.551a2.004 2.004 0 00-.497-2.005zM12 30L2 20c2.842-9.201 15.16-8.799 18-18l10.002 10C27.159 21.199 14.841 20.799 12 30zm7.562-15.1c-.326-.273-.654-.459-.984-.551a2.864 2.864 0 00-.988-.105 3.54 3.54 0 00-1 .229 13.73 13.73 0 00-1.014.438 56.818 56.818 0 00-1.611-1.793c.242-.219.477-.33.703-.338.227-.01.445.014.652.066.211.053.404.098.582.133a.538.538 0 00.473-.119.664.664 0 00.236-.482c.01-.197-.064-.389-.229-.576a1.293 1.293 0 00-.77-.443 2.377 2.377 0 00-.93.021c-.316.072-.617.191-.902.359s-.514.34-.684.508l-.195-.184a.376.376 0 00-.27-.1.35.35 0 00-.273.133.36.36 0 00-.092.285.36.36 0 00.127.252c.065.055.13.109.195.166-.256.309-.467.65-.633 1.01a3.376 3.376 0 00-.305 1.066c-.039.35-.002.67.105.967.107.299.305.553.594.793.471.391 1.025.557 1.668.52.641-.039 1.332-.23 2.075-.629.59.682 1.182 1.359 1.773 1.988-.25.211-.469.332-.662.371a1.035 1.035 0 01-.521-.01 1.657 1.657 0 01-.434-.209 3.048 3.048 0 00-.395-.234c-.129-.064-.262-.1-.398-.102s-.281.064-.441.201c-.164.143-.246.309-.246.496s.086.375.254.566c.17.191.391.352.658.479s.569.207.901.229a2.5 2.5 0 001.051-.164c.371-.135.738-.379 1.1-.742.174.17.35.332.525.488a.36.36 0 00.273.088.363.363 0 00.27-.141.386.386 0 00.094-.293.341.341 0 00-.125-.244 13.1 13.1 0 01-.527-.445c.299-.367.539-.754.717-1.137.178-.385.283-.756.318-1.1a1.965 1.965 0 00-.119-.941c-.112-.287-.311-.533-.596-.77zm-5.591.678a.971.971 0 01-.746-.291.733.733 0 01-.195-.322 1.004 1.004 0 01-.039-.418c.014-.15.059-.307.137-.465.074-.158.184-.316.324-.469a35.667 35.667 0 011.52 1.629c-.384.211-.718.324-1.001.336zm4.717 2.002c-.09.166-.193.314-.314.443a40.863 40.863 0 01-1.68-1.826c.143-.064.293-.131.455-.199s.324-.113.486-.141c.166-.025.33-.018.494.021.162.041.316.129.459.268.141.141.23.287.266.445.039.16.041.322.014.488a1.612 1.612 0 01-.18.501zm-3.971 4.6a.499.499 0 01.668.742c-.016.016-.033.027-.051.041l.002.002a15.86 15.86 0 00-1.714 1.475 13.571 13.571 0 00-1.361 1.58l-.639.875a.47.47 0 01-.074.1.504.504 0 01-.71 0 .503.503 0 01-.066-.627l-.002-.002.684-.934c.427-.584.918-1.156 1.461-1.699a17.95 17.95 0 011.8-1.553h.002zm3.661-14.465c.506-.506.963-1.037 1.36-1.581l.664-.91a.504.504 0 11.826.561l.002.002-.684.938a14.693 14.693 0 01-1.461 1.697 18.201 18.201 0 01-1.799 1.553l-.004-.002a.504.504 0 01-.699-.014.506.506 0 01.117-.801c.588-.449 1.155-.92 1.678-1.443z"/></symbol><symbol id="icon-fire" viewBox="0 0 32 32"><path d="M22 9c-.062 2.675-2.07 4.934-2.07 4.934C19.93 8.958 16 5 16 5s-.053 2.962-2.043 5.948C11.967 3.981 5.995 0 5.995 0 8.981 10.948 5 14.93 5 22.892 5 27.563 8.954 32 15 32c8.957 0 10.689-3.288 11.615-6.993C27.891 19.906 25.98 13.976 22 9zm2.676 15.521C24.033 27.09 23.307 30 15 30c-5.008 0-8-3.614-8-7.108 0-2.676.488-4.873 1.004-7.199.656-2.949 1.328-5.968 1.037-9.961 3.084 4.269 4.182 9.925 4.182 9.925s2.871-4.031 3.643-5.903C17.457 10.957 18 15 18 19c0 0 2.656-2.188 4.648-5.478 2.098 3.762 2.854 7.695 2.028 10.999zm-2.244-7.726l.186 1.035c.416 2.318.183 5.058-.592 6.982a.499.499 0 01-.651.277.499.499 0 01-.277-.65c.584-1.449.83-3.489.674-5.353-1.004 1.122-2.269 2.291-4.972 3.575l-.506.239-.182-.528c-.362-1.05-.727-2.111-.885-3.59a43.726 43.726 0 01-1.865 2.743l-.508.692-.352-.784c-.861-1.925-1.517-3.428-2.037-4.75-.481 1.545-.84 3.332-.84 6.941a.5.5 0 01-1 0c0-4.709.625-6.523 1.285-8.444l.52-1.51.479 1.35c.515 1.451 1.193 3.05 2.152 5.212.632-.893 1.056-1.565 1.568-2.376l1.518-2.378v1.709c0 1.924.346 3.181.727 4.323 2.659-1.338 3.655-2.502 4.708-3.73l.85-.985z"/></symbol><symbol id="icon-wallet" viewBox="0 0 32 32"><path d="M16 20a2 2 0 113.999-.001A2 2 0 0116 20zm13.001-7c-.001 0-.001 0 0 0L29 7V4a3 3 0 00-3-3H5.5A5.506 5.506 0 000 6.5v20C0 29.532 2.467 32 5.5 32h18c3.032 0 5.5-2.468 5.5-5.5V25h.001c3.998-3.001 3.998-8.999 0-12zM5.5 3H26c.551 0 1 .448 1 1v6.184A2.966 2.966 0 0026 10h-.001V5a1 1 0 00-1-1h-21a1 1 0 00-1 1v3.943A3.482 3.482 0 012 6.5 3.5 3.5 0 015.5 3zm19.499 3h-21V5h21v1zm0 1v1h-21V7h21zm0 2v1H5.5A3.46 3.46 0 014 9.65V9h20.999zM27 26.5a3.5 3.5 0 01-3.5 3.5h-18A3.5 3.5 0 012 26.5V10.739A5.473 5.473 0 005.5 12H26c.551 0 1 .448 1 1v2h-9a5 5 0 100 10h9v1.5zm1.277-3.5H18c-1.654 0-3-1.346-3-3s1.346-3 3-3h9a2.062 2.062 0 001.602-.804c.104-.14.185-.297.25-.461.009-.022.025-.039.033-.062A5.458 5.458 0 0130 19a5.448 5.448 0 01-1.723 4z"/></symbol><symbol id="icon-truck" viewBox="0 0 32 32"><path d="M24.832 11.445A1.001 1.001 0 0024 11h-1a1 1 0 00-1 1v6a1 1 0 001 1h4a1 1 0 001-1v-1.5c0-.197-.059-.391-.168-.555l-3-4.5zM27 18h-4v-6h1l3 4.5V18zm4.496-2.664l-4-6A2.995 2.995 0 0025 8h-4V6c0-1.654-1.346-3-3-3H3C1.346 3 0 4.346 0 6v11c0 1.654 1.346 3 3 3v3c0 1.654 1.346 3 3 3h1.142c.447 1.721 2 3 3.859 3 1.857 0 3.41-1.279 3.857-3h5.282c.447 1.721 2 3 3.859 3 1.857 0 3.41-1.279 3.857-3H29c1.654 0 3-1.346 3-3v-6c0-.594-.174-1.17-.504-1.664zM3 18a1 1 0 01-1-1V6a1 1 0 011-1h15a1 1 0 011 1v11a1 1 0 01-1 1H3zm8.001 9a2 2 0 110-4 2 2 0 010 4zM24 27a2 2 0 110-4 2 2 0 010 4zm6-4a1 1 0 01-1 1h-1.143c-.447-1.721-2-3-3.857-3-1.859 0-3.412 1.279-3.859 3h-5.282c-.447-1.721-2-3-3.857-3-1.859 0-3.412 1.279-3.859 3H6a1 1 0 01-1-1v-3h13c1.654 0 3-1.346 3-3v-7h4c.334 0 .646.167.832.445l4 6c.109.164.168.358.168.555v6z"/></symbol><symbol id="icon-world" viewBox="0 0 32 32"><path d="M15.5 0C6.939 0 0 6.939 0 15.5S6.939 31 15.5 31 31 24.061 31 15.5 24.061 0 15.5 0zm13.475 15h-5.996c-.055-2.215-.449-4.331-1.148-6.268a16.334 16.334 0 003.736-2.197A13.433 13.433 0 0128.975 15zM14.947 28.972c-1.662-1.384-3.056-3.181-4.076-5.268A15.497 15.497 0 0115 23.025v5.949l-.053-.002zm1.104-26.944c1.886 1.57 3.425 3.673 4.466 6.126-1.426.487-2.941.77-4.518.82V2.025l.052.003zm1.666.17a13.463 13.463 0 017.164 3.614 15.297 15.297 0 01-3.428 1.998c-.91-2.157-2.187-4.064-3.736-5.612zM15 2.025v6.949a15.492 15.492 0 01-4.518-.82c1.041-2.453 2.58-4.556 4.466-6.126L15 2.025zM9.546 7.811a15.335 15.335 0 01-3.427-1.998 13.46 13.46 0 017.164-3.614c-1.55 1.547-2.826 3.454-3.737 5.612zm.559 1.265c1.542.535 3.185.847 4.895.899V15H9.021c.054-2.094.425-4.095 1.084-5.924zM15 16v6.025a16.411 16.411 0 00-4.539.769A18.785 18.785 0 019.021 16H15zm-1.717 12.802a13.431 13.431 0 01-6.545-3.052 15.199 15.199 0 013.188-1.7 17.317 17.317 0 003.357 4.752zm2.717.173v-5.949c1.432.046 2.82.27 4.129.679-1.021 2.087-2.414 3.884-4.076 5.268l-.053.002zm5.074-4.925a15.32 15.32 0 013.188 1.7 13.44 13.44 0 01-6.545 3.052 17.338 17.338 0 003.357-4.752zm-.535-1.256A16.424 16.424 0 0016 22.025V16h5.979a18.806 18.806 0 01-1.44 6.794zM16 15V9.975a16.44 16.44 0 004.895-.898c.658 1.829 1.029 3.83 1.084 5.924H16zM5.434 6.535a16.35 16.35 0 003.735 2.197C8.47 10.669 8.076 12.785 8.021 15H2.025a13.429 13.429 0 013.409-8.465zM2.025 16h5.996a19.724 19.724 0 001.503 7.137 16.23 16.23 0 00-3.538 1.931A13.463 13.463 0 012.025 16zm22.989 9.067a16.256 16.256 0 00-3.539-1.931 19.725 19.725 0 001.504-7.137h5.996a13.464 13.464 0 01-3.961 9.068z"/></symbol></defs></svg>